<svg id="visual" viewBox="0 0 960 540" width="960" height="540" xmlns="http://www.w3.org/2000/svg" xmlns:xlink="http://www.w3.org/1999/xlink" version="1.1"><path d="M0 42L22.8 37.7C45.7 33.3 91.3 24.7 137 19.8C182.7 15 228.3 14 274 16.5C319.7 19 365.3 25 411.2 24.2C457 23.3 503 15.7 548.8 15.2C594.7 14.7 640.3 21.3 686 28.3C731.7 35.3 777.3 42.7 823 45.3C868.7 48 914.3 46 937.2 45L960 44L960 0L937.2 0C914.3 0 868.7 0 823 0C777.3 0 731.7 0 686 0C640.3 0 594.7 0 548.8 0C503 0 457 0 411.2 0C365.3 0 319.7 0 274 0C228.3 0 182.7 0 137 0C91.3 0 45.7 0 22.8 0L0 0Z" fill="#002233" stroke-linecap="round" stroke-linejoin="miter"></path></svg>